<?xml version="1.0" encoding="UTF-8" standalone="no"?>
<!DOCTYPE svg PUBLIC "-//W3C//DTD SVG 1.1//EN" "http://www.w3.org/Graphics/SVG/1.1/DTD/svg11.dtd">
<svg width="100%" height="100%" viewBox="0 0 201 192" version="1.1" xmlns="http://www.w3.org/2000/svg" xmlns:xlink="http://www.w3.org/1999/xlink" xml:space="preserve" xmlns:serif="http://www.serif.com/" >
    <g transform="matrix(1,0,0,1,-380,0)">
        <g id="curved" transform="matrix(1,0,0,1,-10.588,-60.2899)">
            <path shape-rendering="geometricPrecision" d="M459.555,170.084C482.127,170.084 500.453,188.41 500.453,210.982C500.453,233.555 482.127,251.881 459.555,251.881C436.982,251.881 418.656,233.555 418.656,210.982C418.656,188.41 436.982,170.084 459.555,170.084ZM464.126,158.279C465.2,132.911 481.162,111.369 503.49,102.175C507.991,103.104 512.305,104.521 516.371,106.367C507.991,115.959 496.5,124.665 496.686,124.682C541.186,128.782 574.762,156.187 589.848,174.419C583.687,203.089 558.17,224.609 527.667,224.609C521.974,224.609 516.454,223.86 511.203,222.454C512.022,218.759 512.453,214.921 512.453,210.982C512.453,183.326 491.183,160.597 464.126,158.279ZM406.764,214.383C406.693,213.257 406.656,212.124 406.656,210.982C406.656,197.08 412.031,184.422 420.815,174.977C418.391,164.354 418.423,153.032 421.438,141.78C431.633,103.731 471.32,82.161 509.37,92.356C518.605,94.831 526.965,98.956 534.196,104.338C534.196,104.338 529.042,111.943 521.101,118.087C562.521,125.704 591.274,159.397 591.274,159.397L591.281,159.401C591.281,142.47 586.395,126.047 579.064,112.585C566.402,89.333 544.609,71.108 517.042,63.721C463.655,49.416 408.697,81.146 394.392,134.534C386.818,162.8 392.149,191.506 406.764,214.383Z" style="fill:rgb(39,68,114);"/>
        </g>
    </g>
</svg>
