<?xml version="1.0" encoding="UTF-8" standalone="no"?>
<!DOCTYPE svg PUBLIC "-//W3C//DTD SVG 1.1//EN" "http://www.w3.org/Graphics/SVG/1.1/DTD/svg11.dtd">
<svg width="100%" height="100%" viewBox="0 0 212 192" version="1.1" xmlns="http://www.w3.org/2000/svg" xmlns:xlink="http://www.w3.org/1999/xlink" xml:space="preserve" xmlns:serif="http://www.serif.com/" style="fill-rule:evenodd;clip-rule:evenodd;stroke-linejoin:round;stroke-miterlimit:2;">
    <g transform="matrix(1,0,0,1,-1508,0)">
        <g id="evolving" transform="matrix(1.18351,0,0,1.18351,294.661,-932.439)">
            <path d="M1044.48,911.547C1055.02,911.547 1063.57,920.105 1063.57,930.645C1063.57,941.185 1055.02,949.743 1044.48,949.743C1033.93,949.743 1025.38,941.185 1025.38,930.645C1025.38,920.105 1033.93,911.547 1044.48,911.547ZM1141.83,817.983C1141.56,818.545 1141.27,819.101 1140.95,819.651L1122.33,852.521L1158.16,915.742L1086.5,915.742L1068.48,947.534C1068.05,948.296 1067.59,949.032 1067.1,949.742L1187.33,949.742C1193.38,949.742 1198.97,946.528 1202.02,941.301C1205.07,936.074 1205.1,929.623 1202.12,924.36L1141.83,817.983ZM1042.17,898.629C1042.93,898.575 1043.7,898.547 1044.48,898.547C1056.32,898.547 1066.67,904.977 1072.24,914.535L1129.64,813.241C1134.27,805.079 1131.4,794.696 1123.24,790.069C1115.07,785.443 1104.69,788.315 1100.07,796.477L1042.17,898.629Z" style="fill:rgb(73,171,246);"/>
        </g>
    </g>
</svg>
