<?xml version="1.0" encoding="UTF-8" standalone="no"?>
<!DOCTYPE svg PUBLIC "-//W3C//DTD SVG 1.1//EN" "http://www.w3.org/Graphics/SVG/1.1/DTD/svg11.dtd">
<svg width="100%" height="100%" viewBox="0 0 333 192" version="1.1" xmlns="http://www.w3.org/2000/svg" xmlns:xlink="http://www.w3.org/1999/xlink" xml:space="preserve" xmlns:serif="http://www.serif.com/" style="fill-rule:evenodd;clip-rule:evenodd;stroke-linejoin:round;stroke-miterlimit:2;">
    <g transform="matrix(1,0,0,1,-1051,0)">
        <g id="steps" transform="matrix(1.23172,0,0,1.23172,-128.189,-383.167)">
            <path d="M977.97,426.627C989.01,426.627 997.973,435.59 997.973,446.63C997.973,457.669 989.01,466.632 977.97,466.632C966.931,466.632 957.968,457.669 957.968,446.63C957.968,435.59 966.931,426.627 977.97,426.627ZM1158.75,321.489C1156.43,317.138 1151.9,314.419 1146.98,314.419C1142.05,314.419 1137.52,317.138 1135.2,321.489L1068.38,447.032C1066.18,451.165 1066.31,456.149 1068.72,460.163C1071.13,464.176 1075.47,466.632 1080.15,466.632L1213.8,466.632C1218.48,466.632 1222.82,464.176 1225.23,460.163C1227.64,456.149 1227.77,451.165 1225.57,447.032L1158.75,321.489ZM1083.4,319.038L1016.58,444.581C1012.69,451.89 1015.47,460.982 1022.78,464.872C1030.09,468.762 1039.18,465.987 1043.07,458.678L1109.89,333.135C1113.78,325.826 1111,316.734 1103.69,312.844C1096.39,308.953 1087.29,311.729 1083.4,319.038ZM1146.98,356.135L1191.59,439.962C1191.59,439.962 1102.36,439.962 1102.36,439.962C1102.36,439.962 1146.98,356.135 1146.98,356.135Z" style="fill:rgb(0,95,238);"/>
        </g>
    </g>
</svg>
