<?xml version="1.0" encoding="UTF-8" standalone="no"?>
<!DOCTYPE svg PUBLIC "-//W3C//DTD SVG 1.1//EN" "http://www.w3.org/Graphics/SVG/1.1/DTD/svg11.dtd">
<svg width="100%" height="100%" viewBox="0 0 256 192" version="1.1" xmlns="http://www.w3.org/2000/svg" xmlns:xlink="http://www.w3.org/1999/xlink" xml:space="preserve" xmlns:serif="http://www.serif.com/" style="fill-rule:evenodd;clip-rule:evenodd;stroke-linejoin:round;stroke-miterlimit:2;">
    <g id="straight" transform="matrix(1.11024,0,0,1.11024,-95.5385,-79.1252)">
        <path d="M170.108,177.606C176.044,201.879 192.58,222.016 214.522,232.822C202.048,239.834 187.655,243.836 172.336,243.836C131.62,243.836 97.453,215.572 88.399,177.606L170.108,177.606ZM313.009,177.606C304.596,203.584 280.191,222.388 251.429,222.388C222.667,222.388 198.262,203.584 189.849,177.606L313.009,177.606ZM186.813,161.234C186.749,160.054 186.716,158.869 186.716,157.676C186.716,121.96 215.713,92.963 251.429,92.963C287.145,92.963 316.142,121.96 316.142,157.676C316.142,164.497 315.084,171.074 313.124,177.247L215.751,136.675L215.751,161.234L186.813,161.234ZM86.13,161.234C86.078,160.013 86.052,158.785 86.052,157.552C86.052,109.931 124.715,71.268 172.336,71.268C187.751,71.268 202.227,75.32 214.756,82.414C186.914,96.018 167.716,124.623 167.716,157.676C167.716,158.869 167.741,160.056 167.791,161.234L86.13,161.234Z" style="fill:rgb(139,195,74);"/>
    </g>
</svg>
